<svg xmlns="http://www.w3.org/2000/svg" width="24" height="24"><path d="M15.128 2.54c.604 1.365 2.018 2.18 3.5 2.02 2.957-.32 4.887 3.02 3.13 5.418-.88 1.204-.88 2.84 0 4.042 1.757 2.398-.173 5.74-3.13 5.42-1.482-.16-2.896.654-3.5 2.02-1.197 2.72-5.058 2.72-6.256 0-.603-1.365-2.017-2.18-3.5-2.02-2.956.32-4.886-3.022-3.13-5.42.88-1.203.88-2.838 0-4.042-1.756-2.398.174-5.74 3.13-5.417 1.483.16 2.897-.654 3.5-2.02 1.198-2.72 5.06-2.72 6.256 0zM12 7.472C9.5 7.473 7.472 9.5 7.472 12c0 2.5 2.028 4.528 4.528 4.528 2.5 0 4.528-2.027 4.528-4.53 0-2.498-2.03-4.525-4.528-4.525z" fill="none"/></svg>